<mxfile host="Electron" modified="2023-09-04T20:37:16.956Z" agent="Mozilla/5.0 (Windows NT 10.0; Win64; x64) AppleWebKit/537.36 (KHTML, like Gecko) draw.io/21.6.5 Chrome/114.0.5735.243 Electron/25.3.1 Safari/537.36" etag="9krjSZXpaD9GRamZgYxr" version="21.6.5" type="device">
  <diagram name="Page-1" id="PNVQmQqSfKHXlzU1RIl6">
    <mxGraphModel dx="810" dy="473" grid="1" gridSize="10" guides="1" tooltips="1" connect="1" arrows="1" fold="1" page="1" pageScale="1" pageWidth="690" pageHeight="980" math="0" shadow="0">
      <root>
        <mxCell id="0" />
        <mxCell id="1" parent="0" />
        <mxCell id="2y4pNYZKnk1Z7lFf9wYQ-1" value="" style="whiteSpace=wrap;html=1;shape=mxgraph.basic.octagon2;align=center;verticalAlign=middle;dx=15;aspect=fixed;shadow=1;fillColor=#bac8d3;strokeColor=#23445d;rotation=338;" parent="1" vertex="1">
          <mxGeometry x="210" y="100" width="100" height="100" as="geometry" />
        </mxCell>
        <mxCell id="2y4pNYZKnk1Z7lFf9wYQ-8" value="" style="ellipse;whiteSpace=wrap;html=1;aspect=fixed;fillColor=#fad9d5;strokeColor=#ae4132;" parent="1" vertex="1">
          <mxGeometry x="227" y="117" width="10" height="10" as="geometry" />
        </mxCell>
        <mxCell id="2y4pNYZKnk1Z7lFf9wYQ-9" value="" style="ellipse;whiteSpace=wrap;html=1;aspect=fixed;fillColor=#fad9d5;strokeColor=#ae4132;" parent="1" vertex="1">
          <mxGeometry x="241" y="116" width="7" height="7" as="geometry" />
        </mxCell>
        <mxCell id="2y4pNYZKnk1Z7lFf9wYQ-10" value="" style="ellipse;whiteSpace=wrap;html=1;aspect=fixed;fillColor=#fad9d5;strokeColor=#ae4132;" parent="1" vertex="1">
          <mxGeometry x="234" y="130" width="7" height="7" as="geometry" />
        </mxCell>
        <mxCell id="2y4pNYZKnk1Z7lFf9wYQ-11" value="" style="ellipse;whiteSpace=wrap;html=1;aspect=fixed;fillColor=#fad9d5;strokeColor=#ae4132;" parent="1" vertex="1">
          <mxGeometry x="244" y="126" width="7" height="7" as="geometry" />
        </mxCell>
        <mxCell id="2y4pNYZKnk1Z7lFf9wYQ-12" value="" style="ellipse;whiteSpace=wrap;html=1;aspect=fixed;fillColor=#b1ddf0;strokeColor=#10739e;" parent="1" vertex="1">
          <mxGeometry x="250" y="177" width="7" height="7" as="geometry" />
        </mxCell>
        <mxCell id="2y4pNYZKnk1Z7lFf9wYQ-13" value="" style="ellipse;whiteSpace=wrap;html=1;aspect=fixed;direction=south;fillColor=#b1ddf0;strokeColor=#10739e;" parent="1" vertex="1">
          <mxGeometry x="259" y="186" width="7" height="7" as="geometry" />
        </mxCell>
        <mxCell id="2y4pNYZKnk1Z7lFf9wYQ-14" value="" style="ellipse;whiteSpace=wrap;html=1;aspect=fixed;fillColor=#b1ddf0;strokeColor=#10739e;" parent="1" vertex="1">
          <mxGeometry x="271" y="180" width="7" height="7" as="geometry" />
        </mxCell>
        <mxCell id="2y4pNYZKnk1Z7lFf9wYQ-15" value="" style="ellipse;whiteSpace=wrap;html=1;aspect=fixed;fillColor=#b1ddf0;strokeColor=#10739e;" parent="1" vertex="1">
          <mxGeometry x="262" y="172" width="9" height="9" as="geometry" />
        </mxCell>
        <mxCell id="2y4pNYZKnk1Z7lFf9wYQ-16" value="" style="ellipse;whiteSpace=wrap;html=1;aspect=fixed;fillColor=#b1ddf0;strokeColor=#10739e;" parent="1" vertex="1">
          <mxGeometry x="252" y="165" width="7" height="7" as="geometry" />
        </mxCell>
        <mxCell id="2y4pNYZKnk1Z7lFf9wYQ-17" value="" style="ellipse;whiteSpace=wrap;html=1;aspect=fixed;fillColor=#fad7ac;strokeColor=#b46504;" parent="1" vertex="1">
          <mxGeometry x="282" y="117" width="7" height="7" as="geometry" />
        </mxCell>
        <mxCell id="2y4pNYZKnk1Z7lFf9wYQ-18" value="" style="ellipse;whiteSpace=wrap;html=1;aspect=fixed;fillColor=#fad7ac;strokeColor=#b46504;" parent="1" vertex="1">
          <mxGeometry x="286" y="127" width="9" height="9" as="geometry" />
        </mxCell>
        <mxCell id="2y4pNYZKnk1Z7lFf9wYQ-19" value="" style="ellipse;whiteSpace=wrap;html=1;aspect=fixed;fillColor=#fad7ac;strokeColor=#b46504;" parent="1" vertex="1">
          <mxGeometry x="276" y="125" width="7" height="7" as="geometry" />
        </mxCell>
        <mxCell id="2y4pNYZKnk1Z7lFf9wYQ-22" value="clustTools" style="text;html=1;strokeColor=none;fillColor=none;align=center;verticalAlign=middle;whiteSpace=wrap;rounded=0;fontFamily=Courier New;fontStyle=1;fontColor=#242424;fontSize=15;" parent="1" vertex="1">
          <mxGeometry x="230" y="137" width="60" height="30" as="geometry" />
        </mxCell>
      </root>
    </mxGraphModel>
  </diagram>
</mxfile>
